<svg xmlns="http://www.w3.org/2000/svg" viewBox="0 0 225 360" width="225" height="360">
<g fill="#00DD00">
<rect x="9" y="87" width="6" height="3"/>
<rect x="9" y="129" width="6" height="3"/>
<rect x="9" y="171" width="6" height="3"/>
<rect x="9" y="213" width="6" height="3"/>
<rect x="9" y="255" width="6" height="3"/>
<rect x="9" y="297" width="6" height="3"/>
<rect x="9" y="339" width="6" height="3"/>
<rect x="12" y="48" width="3" height="3"/>
<rect x="12" y="69" width="3" height="6"/>
<rect x="12" y="111" width="3" height="6"/>
<rect x="12" y="153" width="3" height="6"/>
<rect x="12" y="195" width="3" height="6"/>
<rect x="12" y="237" width="3" height="6"/>
<rect x="12" y="279" width="3" height="6"/>
<rect x="12" y="321" width="3" height="6"/>
<rect x="12" y="45" width="6" height="3"/>
<rect x="12" y="75" width="9" height="3"/>
<rect x="12" y="117" width="9" height="3"/>
<rect x="12" y="159" width="9" height="3"/>
<rect x="12" y="201" width="9" height="3"/>
<rect x="12" y="243" width="9" height="3"/>
<rect x="12" y="285" width="9" height="3"/>
<rect x="12" y="327" width="9" height="3"/>
<rect x="12" y="66" width="15" height="3"/>
<rect x="12" y="90" width="15" height="3"/>
<rect x="12" y="108" width="15" height="3"/>
<rect x="12" y="132" width="15" height="3"/>
<rect x="12" y="150" width="15" height="3"/>
<rect x="12" y="174" width="15" height="3"/>
<rect x="12" y="192" width="15" height="3"/>
<rect x="12" y="216" width="15" height="3"/>
<rect x="12" y="234" width="15" height="3"/>
<rect x="12" y="258" width="15" height="3"/>
<rect x="12" y="276" width="15" height="3"/>
<rect x="12" y="300" width="15" height="3"/>
<rect x="12" y="318" width="15" height="3"/>
<rect x="12" y="342" width="15" height="3"/>
<rect x="15" y="42" width="3" height="3"/>
<rect x="15" y="39" width="6" height="3"/>
<rect x="15" y="78" width="12" height="3"/>
<rect x="15" y="120" width="12" height="3"/>
<rect x="15" y="162" width="12" height="3"/>
<rect x="15" y="204" width="12" height="3"/>
<rect x="15" y="246" width="12" height="3"/>
<rect x="15" y="288" width="12" height="3"/>
<rect x="15" y="330" width="12" height="3"/>
<rect x="18" y="36" width="3" height="3"/>
<rect x="18" y="69" width="3" height="6"/>
<rect x="18" y="81" width="3" height="9"/>
<rect x="18" y="93" width="3" height="3"/>
<rect x="18" y="111" width="3" height="6"/>
<rect x="18" y="123" width="3" height="9"/>
<rect x="18" y="135" width="3" height="3"/>
<rect x="18" y="153" width="3" height="6"/>
<rect x="18" y="165" width="3" height="9"/>
<rect x="18" y="177" width="3" height="3"/>
<rect x="18" y="195" width="3" height="6"/>
<rect x="18" y="207" width="3" height="9"/>
<rect x="18" y="219" width="3" height="3"/>
<rect x="18" y="237" width="3" height="6"/>
<rect x="18" y="249" width="3" height="9"/>
<rect x="18" y="261" width="3" height="3"/>
<rect x="18" y="279" width="3" height="6"/>
<rect x="18" y="291" width="3" height="9"/>
<rect x="18" y="303" width="3" height="3"/>
<rect x="18" y="321" width="3" height="6"/>
<rect x="18" y="333" width="3" height="9"/>
<rect x="18" y="345" width="3" height="3"/>
<rect x="18" y="33" width="6" height="3"/>
<rect x="21" y="30" width="3" height="3"/>
<rect x="21" y="27" width="6" height="3"/>
<rect x="24" y="24" width="3" height="3"/>
<rect x="24" y="69" width="3" height="3"/>
<rect x="24" y="111" width="3" height="3"/>
<rect x="24" y="153" width="3" height="3"/>
<rect x="24" y="195" width="3" height="3"/>
<rect x="24" y="237" width="3" height="3"/>
<rect x="24" y="279" width="3" height="3"/>
<rect x="24" y="321" width="3" height="3"/>
<rect x="24" y="81" width="6" height="9"/>
<rect x="24" y="123" width="6" height="9"/>
<rect x="24" y="165" width="6" height="9"/>
<rect x="24" y="207" width="6" height="9"/>
<rect x="24" y="249" width="6" height="9"/>
<rect x="24" y="291" width="6" height="9"/>
<rect x="24" y="333" width="6" height="9"/>
<rect x="30" y="12" width="42" height="3"/>
<rect x="33" y="69" width="3" height="6"/>
<rect x="33" y="84" width="3" height="6"/>
<rect x="33" y="111" width="3" height="6"/>
<rect x="33" y="126" width="3" height="6"/>
<rect x="33" y="153" width="3" height="6"/>
<rect x="33" y="168" width="3" height="6"/>
<rect x="33" y="195" width="3" height="6"/>
<rect x="33" y="210" width="3" height="6"/>
<rect x="33" y="237" width="3" height="6"/>
<rect x="33" y="252" width="3" height="6"/>
<rect x="33" y="279" width="3" height="6"/>
<rect x="33" y="294" width="3" height="6"/>
<rect x="33" y="321" width="3" height="6"/>
<rect x="33" y="336" width="3" height="6"/>
<rect x="33" y="75" width="12" height="3"/>
<rect x="33" y="117" width="12" height="3"/>
<rect x="33" y="159" width="12" height="3"/>
<rect x="33" y="201" width="12" height="3"/>
<rect x="33" y="243" width="12" height="3"/>
<rect x="33" y="285" width="12" height="3"/>
<rect x="33" y="327" width="12" height="3"/>
<rect x="33" y="90" width="15" height="3"/>
<rect x="33" y="132" width="15" height="3"/>
<rect x="33" y="174" width="15" height="3"/>
<rect x="33" y="216" width="15" height="3"/>
<rect x="33" y="258" width="15" height="3"/>
<rect x="33" y="300" width="15" height="3"/>
<rect x="33" y="342" width="15" height="3"/>
<rect x="36" y="66" width="12" height="3"/>
<rect x="36" y="78" width="12" height="3"/>
<rect x="36" y="108" width="12" height="3"/>
<rect x="36" y="120" width="12" height="3"/>
<rect x="36" y="150" width="12" height="3"/>
<rect x="36" y="162" width="12" height="3"/>
<rect x="36" y="192" width="12" height="3"/>
<rect x="36" y="204" width="12" height="3"/>
<rect x="36" y="234" width="12" height="3"/>
<rect x="36" y="246" width="12" height="3"/>
<rect x="36" y="276" width="12" height="3"/>
<rect x="36" y="288" width="12" height="3"/>
<rect x="36" y="318" width="12" height="3"/>
<rect x="36" y="330" width="12" height="3"/>
<rect x="39" y="69" width="3" height="6"/>
<rect x="39" y="81" width="3" height="9"/>
<rect x="39" y="93" width="3" height="3"/>
<rect x="39" y="111" width="3" height="6"/>
<rect x="39" y="123" width="3" height="9"/>
<rect x="39" y="135" width="3" height="3"/>
<rect x="39" y="153" width="3" height="6"/>
<rect x="39" y="165" width="3" height="9"/>
<rect x="39" y="177" width="3" height="3"/>
<rect x="39" y="195" width="3" height="6"/>
<rect x="39" y="207" width="3" height="9"/>
<rect x="39" y="219" width="3" height="3"/>
<rect x="39" y="237" width="3" height="6"/>
<rect x="39" y="249" width="3" height="9"/>
<rect x="39" y="261" width="3" height="3"/>
<rect x="39" y="279" width="3" height="6"/>
<rect x="39" y="291" width="3" height="9"/>
<rect x="39" y="303" width="3" height="3"/>
<rect x="39" y="321" width="3" height="6"/>
<rect x="39" y="333" width="3" height="9"/>
<rect x="39" y="345" width="3" height="3"/>
<rect x="45" y="69" width="6" height="3"/>
<rect x="45" y="81" width="6" height="3"/>
<rect x="45" y="87" width="6" height="3"/>
<rect x="45" y="111" width="6" height="3"/>
<rect x="45" y="123" width="6" height="3"/>
<rect x="45" y="129" width="6" height="3"/>
<rect x="45" y="153" width="6" height="3"/>
<rect x="45" y="165" width="6" height="3"/>
<rect x="45" y="171" width="6" height="3"/>
<rect x="45" y="195" width="6" height="3"/>
<rect x="45" y="207" width="6" height="3"/>
<rect x="45" y="213" width="6" height="3"/>
<rect x="45" y="237" width="6" height="3"/>
<rect x="45" y="249" width="6" height="3"/>
<rect x="45" y="255" width="6" height="3"/>
<rect x="45" y="279" width="6" height="3"/>
<rect x="45" y="291" width="6" height="3"/>
<rect x="45" y="297" width="6" height="3"/>
<rect x="45" y="321" width="6" height="3"/>
<rect x="45" y="333" width="6" height="3"/>
<rect x="45" y="339" width="6" height="3"/>
<rect x="48" y="84" width="3" height="3"/>
<rect x="48" y="126" width="3" height="3"/>
<rect x="48" y="168" width="3" height="3"/>
<rect x="48" y="210" width="3" height="3"/>
<rect x="48" y="252" width="3" height="3"/>
<rect x="48" y="294" width="3" height="3"/>
<rect x="48" y="336" width="3" height="3"/>
<rect x="54" y="111" width="3" height="6"/>
<rect x="54" y="126" width="3" height="6"/>
<rect x="54" y="153" width="3" height="6"/>
<rect x="54" y="168" width="3" height="6"/>
<rect x="54" y="342" width="3" height="3"/>
<rect x="54" y="339" width="6" height="3"/>
<rect x="54" y="117" width="12" height="3"/>
<rect x="54" y="159" width="12" height="3"/>
<rect x="54" y="132" width="15" height="3"/>
<rect x="54" y="174" width="15" height="3"/>
<rect x="57" y="336" width="3" height="3"/>
<rect x="57" y="108" width="12" height="3"/>
<rect x="57" y="120" width="12" height="3"/>
<rect x="57" y="150" width="12" height="3"/>
<rect x="57" y="162" width="12" height="3"/>
<rect x="60" y="111" width="3" height="6"/>
<rect x="60" y="123" width="3" height="9"/>
<rect x="60" y="135" width="3" height="3"/>
<rect x="60" y="153" width="3" height="6"/>
<rect x="60" y="165" width="3" height="9"/>
<rect x="60" y="177" width="3" height="3"/>
<rect x="60" y="333" width="3" height="3"/>
<rect x="60" y="330" width="6" height="3"/>
<rect x="63" y="327" width="3" height="3"/>
<rect x="63" y="324" width="6" height="3"/>
<rect x="66" y="321" width="3" height="3"/>
<rect x="66" y="111" width="6" height="3"/>
<rect x="66" y="123" width="6" height="3"/>
<rect x="66" y="129" width="6" height="3"/>
<rect x="66" y="153" width="6" height="3"/>
<rect x="66" y="165" width="6" height="3"/>
<rect x="66" y="171" width="6" height="3"/>
<rect x="66" y="318" width="6" height="3"/>
<rect x="69" y="126" width="3" height="3"/>
<rect x="69" y="168" width="3" height="3"/>
<rect x="75" y="168" width="3" height="3"/>
<rect x="75" y="210" width="3" height="3"/>
<rect x="75" y="24" width="6" height="3"/>
<rect x="75" y="153" width="6" height="6"/>
<rect x="75" y="171" width="6" height="3"/>
<rect x="75" y="195" width="6" height="6"/>
<rect x="75" y="213" width="6" height="3"/>
<rect x="75" y="159" width="12" height="3"/>
<rect x="75" y="201" width="12" height="3"/>
<rect x="78" y="27" width="3" height="3"/>
<rect x="78" y="30" width="6" height="3"/>
<rect x="78" y="150" width="12" height="3"/>
<rect x="78" y="174" width="12" height="3"/>
<rect x="78" y="192" width="12" height="3"/>
<rect x="78" y="216" width="12" height="3"/>
<rect x="81" y="33" width="3" height="3"/>
<rect x="81" y="36" width="6" height="3"/>
<rect x="81" y="234" width="6" height="36"/>
<rect x="81" y="276" width="6" height="36"/>
<rect x="81" y="162" width="9" height="3"/>
<rect x="81" y="204" width="9" height="3"/>
<rect x="84" y="39" width="3" height="3"/>
<rect x="84" y="156" width="3" height="3"/>
<rect x="84" y="168" width="3" height="6"/>
<rect x="84" y="177" width="3" height="3"/>
<rect x="84" y="198" width="3" height="3"/>
<rect x="84" y="210" width="3" height="6"/>
<rect x="84" y="219" width="3" height="3"/>
<rect x="84" y="42" width="6" height="3"/>
<rect x="84" y="153" width="9" height="3"/>
<rect x="84" y="165" width="9" height="3"/>
<rect x="84" y="195" width="9" height="3"/>
<rect x="84" y="207" width="9" height="3"/>
<rect x="87" y="45" width="3" height="3"/>
<rect x="87" y="48" width="6" height="3"/>
<rect x="90" y="168" width="3" height="6"/>
<rect x="90" y="210" width="3" height="6"/>
<rect x="96" y="210" width="3" height="3"/>
<rect x="96" y="252" width="3" height="3"/>
<rect x="96" y="66" width="6" height="3"/>
<rect x="96" y="195" width="6" height="6"/>
<rect x="96" y="213" width="6" height="3"/>
<rect x="96" y="237" width="6" height="6"/>
<rect x="96" y="255" width="6" height="3"/>
<rect x="96" y="201" width="12" height="3"/>
<rect x="96" y="243" width="12" height="3"/>
<rect x="99" y="69" width="3" height="3"/>
<rect x="99" y="72" width="6" height="3"/>
<rect x="99" y="192" width="12" height="3"/>
<rect x="99" y="216" width="12" height="3"/>
<rect x="99" y="234" width="12" height="3"/>
<rect x="99" y="258" width="12" height="3"/>
<rect x="102" y="75" width="3" height="3"/>
<rect x="102" y="78" width="6" height="3"/>
<rect x="102" y="204" width="9" height="3"/>
<rect x="102" y="246" width="9" height="3"/>
<rect x="105" y="81" width="3" height="3"/>
<rect x="105" y="198" width="3" height="3"/>
<rect x="105" y="210" width="3" height="6"/>
<rect x="105" y="219" width="3" height="3"/>
<rect x="105" y="240" width="3" height="3"/>
<rect x="105" y="252" width="3" height="6"/>
<rect x="105" y="261" width="3" height="3"/>
<rect x="105" y="84" width="6" height="3"/>
<rect x="105" y="195" width="9" height="3"/>
<rect x="105" y="207" width="9" height="3"/>
<rect x="105" y="237" width="9" height="3"/>
<rect x="105" y="249" width="9" height="3"/>
<rect x="108" y="87" width="3" height="3"/>
<rect x="108" y="90" width="6" height="3"/>
<rect x="111" y="210" width="3" height="6"/>
<rect x="111" y="252" width="3" height="6"/>
<rect x="117" y="252" width="3" height="3"/>
<rect x="117" y="294" width="3" height="3"/>
<rect x="117" y="108" width="6" height="3"/>
<rect x="117" y="237" width="6" height="6"/>
<rect x="117" y="255" width="6" height="3"/>
<rect x="117" y="279" width="6" height="6"/>
<rect x="117" y="297" width="6" height="3"/>
<rect x="120" y="111" width="3" height="3"/>
<rect x="120" y="243" width="9" height="3"/>
<rect x="120" y="285" width="9" height="3"/>
<rect x="120" y="234" width="15" height="3"/>
<rect x="120" y="258" width="15" height="3"/>
<rect x="120" y="276" width="15" height="3"/>
<rect x="120" y="300" width="15" height="3"/>
<rect x="123" y="114" width="3" height="3"/>
<rect x="123" y="117" width="6" height="3"/>
<rect x="123" y="246" width="12" height="3"/>
<rect x="123" y="288" width="12" height="3"/>
<rect x="126" y="120" width="3" height="3"/>
<rect x="126" y="237" width="3" height="6"/>
<rect x="126" y="249" width="3" height="9"/>
<rect x="126" y="261" width="3" height="3"/>
<rect x="126" y="279" width="3" height="6"/>
<rect x="126" y="291" width="3" height="9"/>
<rect x="126" y="303" width="3" height="3"/>
<rect x="126" y="123" width="6" height="3"/>
<rect x="129" y="126" width="3" height="3"/>
<rect x="129" y="129" width="6" height="3"/>
<rect x="132" y="132" width="3" height="3"/>
<rect x="132" y="237" width="3" height="3"/>
<rect x="132" y="249" width="3" height="3"/>
<rect x="132" y="255" width="3" height="3"/>
<rect x="132" y="279" width="3" height="3"/>
<rect x="132" y="291" width="3" height="3"/>
<rect x="132" y="297" width="3" height="3"/>
<rect x="132" y="252" width="6" height="3"/>
<rect x="132" y="294" width="6" height="3"/>
<rect x="138" y="87" width="6" height="3"/>
<rect x="138" y="129" width="6" height="3"/>
<rect x="138" y="171" width="6" height="3"/>
<rect x="138" y="213" width="6" height="3"/>
<rect x="138" y="255" width="6" height="3"/>
<rect x="138" y="297" width="6" height="3"/>
<rect x="138" y="339" width="6" height="3"/>
<rect x="141" y="48" width="3" height="3"/>
<rect x="141" y="69" width="3" height="6"/>
<rect x="141" y="111" width="3" height="6"/>
<rect x="141" y="153" width="3" height="6"/>
<rect x="141" y="195" width="3" height="6"/>
<rect x="141" y="237" width="3" height="6"/>
<rect x="141" y="279" width="3" height="6"/>
<rect x="141" y="321" width="3" height="6"/>
<rect x="141" y="45" width="6" height="3"/>
<rect x="141" y="75" width="9" height="3"/>
<rect x="141" y="117" width="9" height="3"/>
<rect x="141" y="159" width="9" height="3"/>
<rect x="141" y="201" width="9" height="3"/>
<rect x="141" y="243" width="9" height="3"/>
<rect x="141" y="285" width="9" height="3"/>
<rect x="141" y="327" width="9" height="3"/>
<rect x="141" y="66" width="15" height="3"/>
<rect x="141" y="90" width="15" height="3"/>
<rect x="141" y="108" width="15" height="3"/>
<rect x="141" y="132" width="15" height="3"/>
<rect x="141" y="150" width="15" height="3"/>
<rect x="141" y="174" width="15" height="3"/>
<rect x="141" y="192" width="15" height="3"/>
<rect x="141" y="216" width="15" height="3"/>
<rect x="141" y="234" width="15" height="3"/>
<rect x="141" y="258" width="15" height="3"/>
<rect x="141" y="276" width="15" height="3"/>
<rect x="141" y="300" width="15" height="3"/>
<rect x="141" y="318" width="15" height="3"/>
<rect x="141" y="342" width="15" height="3"/>
<rect x="144" y="42" width="3" height="3"/>
<rect x="144" y="39" width="6" height="3"/>
<rect x="144" y="78" width="12" height="3"/>
<rect x="144" y="120" width="12" height="3"/>
<rect x="144" y="162" width="12" height="3"/>
<rect x="144" y="204" width="12" height="3"/>
<rect x="144" y="246" width="12" height="3"/>
<rect x="144" y="288" width="12" height="3"/>
<rect x="144" y="330" width="12" height="3"/>
<rect x="147" y="36" width="3" height="3"/>
<rect x="147" y="69" width="3" height="6"/>
<rect x="147" y="81" width="3" height="9"/>
<rect x="147" y="93" width="3" height="3"/>
<rect x="147" y="111" width="3" height="6"/>
<rect x="147" y="123" width="3" height="9"/>
<rect x="147" y="135" width="3" height="3"/>
<rect x="147" y="153" width="3" height="6"/>
<rect x="147" y="165" width="3" height="9"/>
<rect x="147" y="177" width="3" height="3"/>
<rect x="147" y="195" width="3" height="6"/>
<rect x="147" y="207" width="3" height="9"/>
<rect x="147" y="219" width="3" height="3"/>
<rect x="147" y="237" width="3" height="6"/>
<rect x="147" y="249" width="3" height="9"/>
<rect x="147" y="261" width="3" height="3"/>
<rect x="147" y="279" width="3" height="6"/>
<rect x="147" y="291" width="3" height="9"/>
<rect x="147" y="303" width="3" height="3"/>
<rect x="147" y="321" width="3" height="6"/>
<rect x="147" y="333" width="3" height="9"/>
<rect x="147" y="345" width="3" height="3"/>
<rect x="147" y="33" width="6" height="3"/>
<rect x="150" y="30" width="3" height="3"/>
<rect x="150" y="27" width="6" height="3"/>
<rect x="153" y="24" width="3" height="3"/>
<rect x="153" y="69" width="3" height="3"/>
<rect x="153" y="111" width="3" height="3"/>
<rect x="153" y="153" width="3" height="3"/>
<rect x="153" y="195" width="3" height="3"/>
<rect x="153" y="237" width="3" height="3"/>
<rect x="153" y="279" width="3" height="3"/>
<rect x="153" y="321" width="3" height="3"/>
<rect x="153" y="81" width="6" height="6"/>
<rect x="153" y="123" width="6" height="6"/>
<rect x="153" y="165" width="6" height="6"/>
<rect x="153" y="207" width="6" height="6"/>
<rect x="153" y="249" width="6" height="6"/>
<rect x="153" y="291" width="6" height="6"/>
<rect x="153" y="333" width="6" height="6"/>
<rect x="153" y="87" width="12" height="3"/>
<rect x="153" y="129" width="12" height="3"/>
<rect x="153" y="171" width="12" height="3"/>
<rect x="153" y="213" width="12" height="3"/>
<rect x="153" y="255" width="12" height="3"/>
<rect x="153" y="297" width="12" height="3"/>
<rect x="153" y="339" width="12" height="3"/>
<rect x="159" y="12" width="42" height="3"/>
<rect x="162" y="69" width="3" height="6"/>
<rect x="162" y="111" width="3" height="6"/>
<rect x="162" y="153" width="3" height="6"/>
<rect x="162" y="195" width="3" height="6"/>
<rect x="162" y="237" width="3" height="6"/>
<rect x="162" y="279" width="3" height="6"/>
<rect x="162" y="321" width="3" height="6"/>
<rect x="162" y="75" width="9" height="3"/>
<rect x="162" y="117" width="9" height="3"/>
<rect x="162" y="159" width="9" height="3"/>
<rect x="162" y="201" width="9" height="3"/>
<rect x="162" y="243" width="9" height="3"/>
<rect x="162" y="285" width="9" height="3"/>
<rect x="162" y="327" width="9" height="3"/>
<rect x="162" y="66" width="15" height="3"/>
<rect x="162" y="90" width="15" height="3"/>
<rect x="162" y="108" width="15" height="3"/>
<rect x="162" y="132" width="15" height="3"/>
<rect x="162" y="150" width="15" height="3"/>
<rect x="162" y="174" width="15" height="3"/>
<rect x="162" y="192" width="15" height="3"/>
<rect x="162" y="216" width="15" height="3"/>
<rect x="162" y="234" width="15" height="3"/>
<rect x="162" y="258" width="15" height="3"/>
<rect x="162" y="276" width="15" height="3"/>
<rect x="162" y="300" width="15" height="3"/>
<rect x="162" y="318" width="15" height="3"/>
<rect x="162" y="342" width="15" height="3"/>
<rect x="165" y="78" width="12" height="3"/>
<rect x="165" y="120" width="12" height="3"/>
<rect x="165" y="162" width="12" height="3"/>
<rect x="165" y="204" width="12" height="3"/>
<rect x="165" y="246" width="12" height="3"/>
<rect x="165" y="288" width="12" height="3"/>
<rect x="165" y="330" width="12" height="3"/>
<rect x="168" y="69" width="3" height="6"/>
<rect x="168" y="81" width="3" height="9"/>
<rect x="168" y="93" width="3" height="3"/>
<rect x="168" y="111" width="3" height="6"/>
<rect x="168" y="123" width="3" height="9"/>
<rect x="168" y="135" width="3" height="3"/>
<rect x="168" y="153" width="3" height="6"/>
<rect x="168" y="165" width="3" height="9"/>
<rect x="168" y="177" width="3" height="3"/>
<rect x="168" y="195" width="3" height="6"/>
<rect x="168" y="207" width="3" height="9"/>
<rect x="168" y="219" width="3" height="3"/>
<rect x="168" y="237" width="3" height="6"/>
<rect x="168" y="249" width="3" height="9"/>
<rect x="168" y="261" width="3" height="3"/>
<rect x="168" y="279" width="3" height="6"/>
<rect x="168" y="291" width="3" height="9"/>
<rect x="168" y="303" width="3" height="3"/>
<rect x="168" y="321" width="3" height="6"/>
<rect x="168" y="333" width="3" height="9"/>
<rect x="168" y="345" width="3" height="3"/>
<rect x="174" y="69" width="3" height="3"/>
<rect x="174" y="111" width="3" height="3"/>
<rect x="174" y="153" width="3" height="3"/>
<rect x="174" y="195" width="3" height="3"/>
<rect x="174" y="237" width="3" height="3"/>
<rect x="174" y="279" width="3" height="3"/>
<rect x="174" y="321" width="3" height="3"/>
<rect x="174" y="81" width="6" height="9"/>
<rect x="174" y="123" width="6" height="9"/>
<rect x="174" y="165" width="6" height="9"/>
<rect x="174" y="207" width="6" height="9"/>
<rect x="174" y="249" width="6" height="9"/>
<rect x="174" y="291" width="6" height="9"/>
<rect x="174" y="333" width="6" height="9"/>
<rect x="183" y="342" width="3" height="3"/>
<rect x="183" y="339" width="6" height="3"/>
<rect x="186" y="336" width="3" height="3"/>
<rect x="189" y="333" width="3" height="3"/>
<rect x="189" y="330" width="6" height="3"/>
<rect x="192" y="327" width="3" height="3"/>
<rect x="192" y="324" width="6" height="3"/>
<rect x="195" y="321" width="3" height="3"/>
<rect x="195" y="318" width="6" height="3"/>
<rect x="210" y="24" width="6" height="36"/>
<rect x="210" y="66" width="6" height="36"/>
<rect x="210" y="108" width="6" height="36"/>
<rect x="210" y="150" width="6" height="36"/>
<rect x="210" y="192" width="6" height="36"/>
<rect x="210" y="234" width="6" height="36"/>
<rect x="210" y="276" width="6" height="36"/>
</g>
</svg>